<?xml version="1.0" standalone="no"?>
<!DOCTYPE svg PUBLIC "-//W3C//DTD SVG 20010904//EN"
 "http://www.w3.org/TR/2001/REC-SVG-20010904/DTD/svg10.dtd">
<svg version="1.0" xmlns="http://www.w3.org/2000/svg"
 width="512.000000pt" height="512.000000pt" viewBox="0 0 512.000000 512.000000"
 preserveAspectRatio="xMidYMid meet">
<metadata>
Created by potrace 1.14, written by Peter Selinger 2001-2017
</metadata>
<g transform="translate(0.000000,512.000000) scale(0.100000,-0.100000)"
fill="#000000" stroke="none">
<path d="M2405 4100 c-510 -80 -894 -491 -899 -965 -1 -95 2 -116 20 -150 12
-22 30 -47 40 -56 88 -77 227 -60 280 35 19 33 22 58 27 209 4 152 8 179 29
232 23 58 23 61 6 78 -12 11 -18 13 -18 5 0 -9 -3 -9 -8 -3 -38 54 -117 -158
-129 -345 -3 -52 -10 -101 -16 -107 -17 -23 -65 -15 -83 12 -33 51 -1 270 60
409 84 190 283 378 482 454 133 51 223 66 379 66 114 0 252 -14 260 -26 1 -2
0 -25 -3 -51 -4 -49 -4 -49 -36 -43 -142 26 -253 13 -313 -38 -15 -13 -62 -40
-103 -61 -76 -38 -200 -148 -200 -177 0 -8 -20 -29 -44 -46 -56 -40 -120 -138
-146 -221 -15 -47 -20 -92 -20 -176 0 -124 8 -155 48 -199 73 -77 193 -75 269
5 44 47 53 77 53 177 1 132 38 196 142 242 210 93 507 -50 628 -302 57 -118
74 -204 68 -357 -4 -108 -10 -140 -37 -221 -52 -153 -94 -223 -201 -331 -80
-81 -109 -103 -180 -137 -47 -23 -107 -47 -135 -54 -27 -6 -54 -15 -58 -18 -4
-4 18 -28 49 -54 66 -54 68 -54 184 0 221 104 401 326 481 594 12 41 23 76 24
78 8 9 85 -33 85 -46 0 -32 -43 -167 -76 -240 -50 -111 -132 -227 -216 -308
-78 -76 -206 -165 -263 -184 -19 -6 -35 -15 -35 -20 0 -16 106 -32 190 -29 64
3 97 10 133 28 49 24 167 128 133 117 -68 -22 -199 -56 -202 -53 -3 2 15 17
38 32 146 97 291 308 355 516 15 48 17 51 24 29 20 -68 14 291 -6 390 -14 67
-43 154 -44 133 -1 -6 3 -23 9 -37 6 -17 6 -26 0 -26 -6 0 -10 6 -11 13 0 6
-7 -9 -14 -35 -7 -26 -28 -66 -46 -90 l-34 -42 -6 109 c-11 197 -80 345 -229
496 -82 82 -108 102 -190 142 -103 51 -167 67 -269 67 -175 0 -327 -87 -392
-225 -25 -51 -29 -72 -29 -145 0 -100 -14 -130 -60 -130 -44 0 -53 27 -48 139
3 86 7 105 41 174 70 149 223 261 392 287 63 10 160 7 208 -6 13 -4 17 1 17
18 0 43 12 68 31 68 40 0 182 -64 268 -120 104 -68 221 -176 292 -269 65 -85
172 -302 203 -412 69 -243 58 -557 -29 -799 -69 -193 -169 -327 -314 -422 -67
-44 -88 -63 -40 -38 13 8 25 7 42 -2 12 -6 45 -17 72 -23 l50 -12 -69 -31
c-95 -44 -138 -54 -231 -56 -70 -1 -87 3 -135 28 -62 32 -102 65 -94 77 3 5
-19 19 -48 32 -69 31 -172 110 -397 305 l-184 160 -66 -52 c-36 -29 -91 -69
-121 -88 -30 -19 -61 -42 -69 -51 -12 -15 -10 -18 20 -29 79 -27 231 -114 333
-189 243 -181 358 -245 522 -295 74 -22 108 -27 204 -27 261 0 428 87 632 331
30 36 66 42 91 14 33 -37 22 -65 -68 -160 -132 -139 -250 -220 -394 -267 -30
-10 -70 -28 -89 -42 -20 -13 -81 -38 -136 -55 -56 -17 -103 -34 -106 -39 -9
-14 -183 23 -292 62 l-108 38 0 -64 c0 -63 -1 -65 -25 -65 -24 0 -25 3 -25 55
0 52 -1 55 -25 55 -16 0 -25 6 -25 15 0 11 -11 15 -40 15 l-39 0 -3 -67 c-3
-65 -4 -68 -28 -68 -23 0 -25 4 -28 56 -3 54 -4 56 -27 51 -20 -3 -25 0 -25
17 0 31 -52 28 -95 -6 l-35 -28 37 -37 c37 -38 37 -38 18 -57 -20 -19 -21 -19
-78 35 -46 43 -56 58 -47 68 16 20 -6 25 -53 13 -30 -8 -41 -6 -55 6 -21 19
-142 77 -160 77 -15 0 -162 -100 -162 -110 0 -11 181 -107 261 -139 171 -67
160 -66 649 -66 433 0 447 1 523 23 127 36 229 79 317 132 371 226 585 513
672 901 20 93 23 130 23 344 0 192 -4 260 -19 340 -51 276 -177 540 -372 781
-235 291 -514 469 -844 540 -89 19 -331 27 -415 14z m732 -270 c94 -51 162
-102 246 -185 67 -65 68 -67 50 -87 -33 -36 -53 -42 -69 -19 -35 50 -169 147
-342 248 -11 7 -10 15 3 46 8 20 21 37 28 37 6 0 45 -18 84 -40z m454 -326
c12 -15 8 -21 -30 -54 l-43 -37 43 -36 c43 -35 43 -36 25 -56 l-19 -21 -36 30
c-20 16 -49 41 -66 55 l-30 25 60 55 c65 59 75 64 96 39z m142 -318 l59 -51
-63 -57 -64 -58 -20 21 -20 20 44 38 43 37 -38 29 c-21 17 -42 33 -47 36 -12
9 25 48 38 41 6 -3 36 -29 68 -56z m97 -404 l64 -58 -63 -52 c-34 -29 -66 -52
-70 -52 -5 0 -15 7 -22 16 -12 15 -8 21 29 54 l42 38 -46 37 c-43 36 -44 38
-28 56 9 11 20 19 23 19 4 0 35 -26 71 -58z m82 -317 c0 -79 0 -80 -26 -83
-25 -3 -26 -1 -26 47 0 44 -3 51 -19 51 -42 0 -34 27 14 53 51 28 57 21 57
-68z m-142 -5 c0 -79 0 -80 -25 -80 -23 0 -25 3 -25 50 0 47 -2 50 -26 50 -20
0 -25 4 -22 22 3 22 29 35 76 37 21 1 22 -2 22 -79z m0 -255 c0 -84 0 -85 -25
-85 -23 0 -25 3 -25 50 0 47 -2 50 -25 50 -40 0 -32 34 13 53 62 25 62 25 62
-68z m140 0 c0 -84 0 -85 -25 -85 -23 0 -25 3 -25 50 0 43 -3 50 -20 50 -28 0
-26 36 3 45 18 7 52 19 65 24 1 1 2 -37 2 -84z m-260 -223 c0 -46 -2 -49 -56
-91 -53 -42 -56 -42 -75 -25 -10 9 -19 20 -19 24 0 3 20 21 45 40 37 28 45 39
45 67 0 30 3 33 30 33 29 0 30 -1 30 -48z m190 0 c0 -45 -2 -49 -53 -89 l-53
-41 -24 20 -24 20 39 33 c22 19 43 34 48 35 4 0 7 16 7 35 0 32 2 35 30 35 29
0 30 -1 30 -48z"/>
<path d="M1547 2667 c-46 -89 -49 -136 -11 -166 36 -28 79 -27 109 4 36 35 32
74 -16 160 -22 41 -42 75 -42 75 -1 0 -19 -33 -40 -73z"/>
<path d="M2211 2666 c-48 -87 -52 -126 -16 -161 48 -49 135 -16 137 51 1 24
-55 157 -77 182 -2 2 -21 -31 -44 -72z"/>
<path d="M1780 2682 c0 -6 33 -39 73 -75 l72 -66 68 67 c37 36 67 69 67 72 0
3 -63 6 -140 8 -86 2 -140 0 -140 -6z"/>
<path d="M1790 2189 c1 -104 5 -189 10 -187 5 2 52 43 105 92 l97 89 -99 99
c-53 54 -101 98 -106 98 -4 0 -7 -86 -7 -191z"/>
<path d="M1131 2190 c-69 -49 -205 -145 -303 -212 -98 -67 -178 -124 -178
-127 0 -3 56 -42 125 -87 l124 -81 143 93 c216 138 345 184 521 184 l99 0
-139 106 c-76 59 -166 131 -200 160 -33 30 -63 54 -65 54 -1 -1 -59 -41 -127
-90z m-31 -235 c0 -84 0 -85 -25 -85 -23 0 -25 3 -25 51 l0 51 -30 -7 c-25 -5
-30 -3 -30 12 0 22 56 62 88 62 21 1 22 -2 22 -84z"/>
<path d="M1289 1783 c-4 -29 5 -93 16 -120 l13 -31 -49 26 c-29 15 -72 27
-102 29 -47 3 -57 0 -105 -35 l-52 -39 162 -103 c90 -57 198 -127 240 -157 43
-29 81 -53 85 -53 5 0 51 32 103 70 106 79 248 153 328 171 28 7 52 16 52 20
0 10 -138 59 -166 59 -9 0 -14 -12 -14 -35 0 -31 -3 -35 -25 -35 -22 0 -25 4
-25 39 0 37 -2 39 -37 45 -55 9 -103 7 -103 -3 0 -5 17 -23 37 -40 l37 -31
-22 -22 -22 -22 -50 49 c-27 27 -50 55 -50 62 0 7 -9 13 -21 13 -36 0 -138 61
-178 107 -38 42 -50 51 -52 36z"/>
</g>
</svg>
